M48
; DRILL file KiCad 10.0.1 date 2026-05-01T02:13:36
; FORMAT={-:-/ absolute / metric / decimal}
; #@! TF.CreationDate,2026-05-01T02:13:36-04:00
; #@! TF.GenerationSoftware,Kicad,Pcbnew,10.0.1
; #@! TF.FileFunction,Plated,1,2,PTH
FMAT,2
METRIC
; #@! TA.AperFunction,Plated,PTH,ComponentDrill
T1C0.800
; #@! TA.AperFunction,Plated,PTH,ComponentDrill
T2C0.900
; #@! TA.AperFunction,Plated,PTH,ComponentDrill
T3C1.000
; #@! TA.AperFunction,Plated,PTH,ComponentDrill
T4C1.100
%
G90
G05
T1
X130.81Y-102.63
X130.81Y-106.68
X130.81Y-110.73
X138.43Y-102.63
X138.43Y-106.68
X138.43Y-110.73
T2
X133.35Y-117.72
X133.35Y-123.19
X133.35Y-128.66
X135.89Y-117.72
X135.89Y-123.19
X135.89Y-128.66
T3
X101.6Y-82.55
X101.6Y-85.09
X101.6Y-87.63
X101.6Y-90.17
X101.6Y-92.71
X101.6Y-95.25
X101.6Y-97.79
X101.6Y-100.33
X101.6Y-102.87
X101.6Y-105.41
X101.6Y-107.95
X101.6Y-110.49
X101.6Y-113.03
X101.6Y-115.57
X101.6Y-118.11
X102.87Y-130.81
X105.41Y-130.81
X107.95Y-130.81
X110.49Y-130.81
X124.46Y-82.805
X124.46Y-85.345
X124.46Y-87.885
X124.46Y-90.425
X124.46Y-92.965
X124.46Y-95.505
X124.46Y-98.045
X124.46Y-100.585
X124.46Y-103.125
X124.46Y-105.665
X124.46Y-108.205
X124.46Y-110.745
X124.46Y-113.285
X124.46Y-115.825
X124.46Y-118.365
T4
X131.37Y-81.86
X131.37Y-86.36
X131.37Y-91.075
X131.37Y-95.575
X137.87Y-81.86
X137.87Y-86.36
X137.87Y-91.075
X137.87Y-95.575
M30
