%TF.GenerationSoftware,KiCad,Pcbnew,10.0.1*%
%TF.CreationDate,2026-05-01T02:12:43-04:00*%
%TF.ProjectId,nodemcu_carrier_pcb,6e6f6465-6d63-4755-9f63-617272696572,rev?*%
%TF.SameCoordinates,Original*%
%TF.FileFunction,Copper,L1,Top*%
%TF.FilePolarity,Positive*%
%FSLAX46Y46*%
G04 Gerber Fmt 4.6, Leading zero omitted, Abs format (unit mm)*
G04 Created by KiCad (PCBNEW 10.0.1) date 2026-05-01 02:12:43*
%MOMM*%
%LPD*%
G01*
G04 APERTURE LIST*
%TA.AperFunction,ComponentPad*%
%ADD10C,2.000000*%
%TD*%
%TA.AperFunction,ComponentPad*%
%ADD11C,1.600000*%
%TD*%
%TA.AperFunction,ComponentPad*%
%ADD12R,1.800000X1.800000*%
%TD*%
%TA.AperFunction,ComponentPad*%
%ADD13C,1.800000*%
%TD*%
%TA.AperFunction,ComponentPad*%
%ADD14R,1.700000X1.700000*%
%TD*%
%TA.AperFunction,ComponentPad*%
%ADD15C,1.700000*%
%TD*%
%TA.AperFunction,Conductor*%
%ADD16C,0.200000*%
%TD*%
G04 APERTURE END LIST*
D10*
%TO.P,SW1,1,1_1*%
%TO.N,GND*%
X131370000Y-81860000D03*
X137870000Y-81860000D03*
%TO.P,SW1,2,2_2*%
%TO.N,/D4*%
X131370000Y-86360000D03*
X137870000Y-86360000D03*
%TD*%
D11*
%TO.P,R1,1*%
%TO.N,/D5*%
X130810000Y-102630000D03*
%TO.P,R1,2*%
%TO.N,Net-(D1-A)*%
X138430000Y-102630000D03*
%TD*%
D12*
%TO.P,D1,1,K_1*%
%TO.N,GND*%
X133350000Y-117720000D03*
D13*
%TO.P,D1,2,A_2*%
%TO.N,Net-(D1-A)*%
X135890000Y-117720000D03*
%TD*%
D14*
%TO.P,J2,1,Pin_1_1*%
%TO.N,/Vin*%
X124460000Y-82805000D03*
D15*
%TO.P,J2,2,Pin_2_2*%
%TO.N,GND*%
X124460000Y-85345000D03*
%TO.P,J2,3,Pin_3_3*%
%TO.N,/RST*%
X124460000Y-87885000D03*
%TO.P,J2,4,Pin_4_4*%
%TO.N,/EN*%
X124460000Y-90425000D03*
%TO.P,J2,5,Pin_5_5*%
%TO.N,/3v3_J2*%
X124460000Y-92965000D03*
%TO.P,J2,6,Pin_6_6*%
%TO.N,GND*%
X124460000Y-95505000D03*
%TO.P,J2,7,Pin_7_7*%
%TO.N,/CLK*%
X124460000Y-98045000D03*
%TO.P,J2,8,Pin_8_8*%
%TO.N,/SDD*%
X124460000Y-100585000D03*
%TO.P,J2,9,Pin_9_9*%
%TO.N,/CMD*%
X124460000Y-103125000D03*
%TO.P,J2,10,Pin_10_10*%
%TO.N,/SD1*%
X124460000Y-105665000D03*
%TO.P,J2,11,Pin_11_11*%
%TO.N,/SD2*%
X124460000Y-108205000D03*
%TO.P,J2,12,Pin_12_12*%
%TO.N,/SD3*%
X124460000Y-110745000D03*
%TO.P,J2,13,Pin_13_13*%
%TO.N,/RSV*%
X124460000Y-113285000D03*
%TO.P,J2,14,Pin_14_14*%
X124460000Y-115825000D03*
%TO.P,J2,15,Pin_15_15*%
%TO.N,/AD*%
X124460000Y-118365000D03*
%TD*%
D14*
%TO.P,J1,1,Pin_1_1*%
%TO.N,/3v3*%
X101600000Y-82550000D03*
D15*
%TO.P,J1,2,Pin_2_2*%
%TO.N,GND*%
X101600000Y-85090000D03*
%TO.P,J1,3,Pin_3_3*%
%TO.N,/TX*%
X101600000Y-87630000D03*
%TO.P,J1,4,Pin_4_4*%
%TO.N,/RX*%
X101600000Y-90170000D03*
%TO.P,J1,5,Pin_5_5*%
%TO.N,/D8*%
X101600000Y-92710000D03*
%TO.P,J1,6,Pin_6_6*%
%TO.N,/D7*%
X101600000Y-95250000D03*
%TO.P,J1,7,Pin_7_7*%
%TO.N,/D6*%
X101600000Y-97790000D03*
%TO.P,J1,8,Pin_8_8*%
%TO.N,/D5*%
X101600000Y-100330000D03*
%TO.P,J1,9,Pin_9_9*%
%TO.N,GND*%
X101600000Y-102870000D03*
%TO.P,J1,10,Pin_10_10*%
%TO.N,/3v3*%
X101600000Y-105410000D03*
%TO.P,J1,11,Pin_11_11*%
%TO.N,/D4*%
X101600000Y-107950000D03*
%TO.P,J1,12,Pin_12_12*%
%TO.N,/D3*%
X101600000Y-110490000D03*
%TO.P,J1,13,Pin_13_13*%
%TO.N,/D2*%
X101600000Y-113030000D03*
%TO.P,J1,14,Pin_14_14*%
%TO.N,/D1*%
X101600000Y-115570000D03*
%TO.P,J1,15,Pin_15_15*%
%TO.N,/D0*%
X101600000Y-118110000D03*
%TD*%
D14*
%TO.P,J3,1,Pin_1_1*%
%TO.N,/D2*%
X110490000Y-130810000D03*
D15*
%TO.P,J3,2,Pin_2_2*%
%TO.N,/D1*%
X107950000Y-130810000D03*
%TO.P,J3,3,Pin_3_3*%
%TO.N,/3v3*%
X105410000Y-130810000D03*
%TO.P,J3,4,Pin_4_4*%
%TO.N,GND*%
X102870000Y-130810000D03*
%TD*%
D12*
%TO.P,D2,1,K_1*%
%TO.N,GND*%
X133350000Y-123190000D03*
D13*
%TO.P,D2,2,A_2*%
%TO.N,Net-(D2-A)*%
X135890000Y-123190000D03*
%TD*%
D11*
%TO.P,R2,1*%
%TO.N,/D7*%
X130810000Y-106680000D03*
%TO.P,R2,2*%
%TO.N,Net-(D2-A)*%
X138430000Y-106680000D03*
%TD*%
D12*
%TO.P,D3,1,K_1*%
%TO.N,GND*%
X133350000Y-128660000D03*
D13*
%TO.P,D3,2,A_2*%
%TO.N,Net-(D3-A)*%
X135890000Y-128660000D03*
%TD*%
D11*
%TO.P,R3,1*%
%TO.N,/D6*%
X130810000Y-110730000D03*
%TO.P,R3,2*%
%TO.N,Net-(D3-A)*%
X138430000Y-110730000D03*
%TD*%
D10*
%TO.P,SW2,1,1_1*%
%TO.N,GND*%
X131370000Y-91075000D03*
X137870000Y-91075000D03*
%TO.P,SW2,2,2_2*%
%TO.N,/D3*%
X131370000Y-95575000D03*
X137870000Y-95575000D03*
%TD*%
%TO.N,/D4*%
D16*
X131235000Y-86495000D02*
X131370000Y-86360000D01*
X101600000Y-107950000D02*
X123055000Y-86495000D01*
X123055000Y-86495000D02*
X131235000Y-86495000D01*
%TO.N,Net-(D1-A)*%
X135890000Y-105170000D02*
X135890000Y-117720000D01*
X138430000Y-102630000D02*
X135890000Y-105170000D01*
%TO.N,/3v3*%
X100450000Y-106560000D02*
X101600000Y-105410000D01*
X100450000Y-125850000D02*
X100450000Y-106560000D01*
X105410000Y-130810000D02*
X100450000Y-125850000D01*
%TO.N,/D3*%
X130290000Y-96655000D02*
X131370000Y-95575000D01*
X115435000Y-96655000D02*
X130290000Y-96655000D01*
X101600000Y-110490000D02*
X115435000Y-96655000D01*
%TO.N,/D2*%
X110490000Y-121920000D02*
X101600000Y-113030000D01*
X110490000Y-130810000D02*
X110490000Y-121920000D01*
%TO.N,/D1*%
X107950000Y-130810000D02*
X107950000Y-121920000D01*
X107950000Y-121920000D02*
X101600000Y-115570000D01*
%TO.N,Net-(D2-A)*%
X137330000Y-121750000D02*
X135890000Y-123190000D01*
X138430000Y-106680000D02*
X137330000Y-107780000D01*
X137330000Y-107780000D02*
X137330000Y-121750000D01*
%TO.N,Net-(D3-A)*%
X138430000Y-110730000D02*
X138430000Y-126120000D01*
X138430000Y-126120000D02*
X135890000Y-128660000D01*
%TD*%
M02*
