%TF.GenerationSoftware,KiCad,Pcbnew,10.0.1*%
%TF.CreationDate,2026-05-01T02:12:43-04:00*%
%TF.ProjectId,nodemcu_carrier_pcb,6e6f6465-6d63-4755-9f63-617272696572,rev?*%
%TF.SameCoordinates,Original*%
%TF.FileFunction,Legend,Top*%
%TF.FilePolarity,Positive*%
%FSLAX46Y46*%
G04 Gerber Fmt 4.6, Leading zero omitted, Abs format (unit mm)*
G04 Created by KiCad (PCBNEW 10.0.1) date 2026-05-01 02:12:43*
%MOMM*%
%LPD*%
G01*
G04 APERTURE LIST*
%ADD10C,0.100000*%
%ADD11C,0.150000*%
%ADD12C,0.120000*%
G04 APERTURE END LIST*
D10*
X110793884Y-102218609D02*
X111127217Y-102218609D01*
X111270074Y-102742419D02*
X110793884Y-102742419D01*
X110793884Y-102742419D02*
X110793884Y-101742419D01*
X110793884Y-101742419D02*
X111270074Y-101742419D01*
X111651027Y-102694800D02*
X111793884Y-102742419D01*
X111793884Y-102742419D02*
X112031979Y-102742419D01*
X112031979Y-102742419D02*
X112127217Y-102694800D01*
X112127217Y-102694800D02*
X112174836Y-102647180D01*
X112174836Y-102647180D02*
X112222455Y-102551942D01*
X112222455Y-102551942D02*
X112222455Y-102456704D01*
X112222455Y-102456704D02*
X112174836Y-102361466D01*
X112174836Y-102361466D02*
X112127217Y-102313847D01*
X112127217Y-102313847D02*
X112031979Y-102266228D01*
X112031979Y-102266228D02*
X111841503Y-102218609D01*
X111841503Y-102218609D02*
X111746265Y-102170990D01*
X111746265Y-102170990D02*
X111698646Y-102123371D01*
X111698646Y-102123371D02*
X111651027Y-102028133D01*
X111651027Y-102028133D02*
X111651027Y-101932895D01*
X111651027Y-101932895D02*
X111698646Y-101837657D01*
X111698646Y-101837657D02*
X111746265Y-101790038D01*
X111746265Y-101790038D02*
X111841503Y-101742419D01*
X111841503Y-101742419D02*
X112079598Y-101742419D01*
X112079598Y-101742419D02*
X112222455Y-101790038D01*
X112651027Y-102742419D02*
X112651027Y-101742419D01*
X112651027Y-101742419D02*
X113031979Y-101742419D01*
X113031979Y-101742419D02*
X113127217Y-101790038D01*
X113127217Y-101790038D02*
X113174836Y-101837657D01*
X113174836Y-101837657D02*
X113222455Y-101932895D01*
X113222455Y-101932895D02*
X113222455Y-102075752D01*
X113222455Y-102075752D02*
X113174836Y-102170990D01*
X113174836Y-102170990D02*
X113127217Y-102218609D01*
X113127217Y-102218609D02*
X113031979Y-102266228D01*
X113031979Y-102266228D02*
X112651027Y-102266228D01*
X113651027Y-102361466D02*
X114412932Y-102361466D01*
X115412931Y-102742419D02*
X114841503Y-102742419D01*
X115127217Y-102742419D02*
X115127217Y-101742419D01*
X115127217Y-101742419D02*
X115031979Y-101885276D01*
X115031979Y-101885276D02*
X114936741Y-101980514D01*
X114936741Y-101980514D02*
X114841503Y-102028133D01*
X115793884Y-101837657D02*
X115841503Y-101790038D01*
X115841503Y-101790038D02*
X115936741Y-101742419D01*
X115936741Y-101742419D02*
X116174836Y-101742419D01*
X116174836Y-101742419D02*
X116270074Y-101790038D01*
X116270074Y-101790038D02*
X116317693Y-101837657D01*
X116317693Y-101837657D02*
X116365312Y-101932895D01*
X116365312Y-101932895D02*
X116365312Y-102028133D01*
X116365312Y-102028133D02*
X116317693Y-102170990D01*
X116317693Y-102170990D02*
X115746265Y-102742419D01*
X115746265Y-102742419D02*
X116365312Y-102742419D01*
X116793884Y-102218609D02*
X117127217Y-102218609D01*
X117270074Y-102742419D02*
X116793884Y-102742419D01*
X116793884Y-102742419D02*
X116793884Y-101742419D01*
X116793884Y-101742419D02*
X117270074Y-101742419D01*
D11*
X133286667Y-80267200D02*
X133429524Y-80314819D01*
X133429524Y-80314819D02*
X133667619Y-80314819D01*
X133667619Y-80314819D02*
X133762857Y-80267200D01*
X133762857Y-80267200D02*
X133810476Y-80219580D01*
X133810476Y-80219580D02*
X133858095Y-80124342D01*
X133858095Y-80124342D02*
X133858095Y-80029104D01*
X133858095Y-80029104D02*
X133810476Y-79933866D01*
X133810476Y-79933866D02*
X133762857Y-79886247D01*
X133762857Y-79886247D02*
X133667619Y-79838628D01*
X133667619Y-79838628D02*
X133477143Y-79791009D01*
X133477143Y-79791009D02*
X133381905Y-79743390D01*
X133381905Y-79743390D02*
X133334286Y-79695771D01*
X133334286Y-79695771D02*
X133286667Y-79600533D01*
X133286667Y-79600533D02*
X133286667Y-79505295D01*
X133286667Y-79505295D02*
X133334286Y-79410057D01*
X133334286Y-79410057D02*
X133381905Y-79362438D01*
X133381905Y-79362438D02*
X133477143Y-79314819D01*
X133477143Y-79314819D02*
X133715238Y-79314819D01*
X133715238Y-79314819D02*
X133858095Y-79362438D01*
X134191429Y-79314819D02*
X134429524Y-80314819D01*
X134429524Y-80314819D02*
X134620000Y-79600533D01*
X134620000Y-79600533D02*
X134810476Y-80314819D01*
X134810476Y-80314819D02*
X135048572Y-79314819D01*
X135953333Y-80314819D02*
X135381905Y-80314819D01*
X135667619Y-80314819D02*
X135667619Y-79314819D01*
X135667619Y-79314819D02*
X135572381Y-79457676D01*
X135572381Y-79457676D02*
X135477143Y-79552914D01*
X135477143Y-79552914D02*
X135381905Y-79600533D01*
X130071905Y-118564819D02*
X130071905Y-117564819D01*
X130071905Y-117564819D02*
X130310000Y-117564819D01*
X130310000Y-117564819D02*
X130452857Y-117612438D01*
X130452857Y-117612438D02*
X130548095Y-117707676D01*
X130548095Y-117707676D02*
X130595714Y-117802914D01*
X130595714Y-117802914D02*
X130643333Y-117993390D01*
X130643333Y-117993390D02*
X130643333Y-118136247D01*
X130643333Y-118136247D02*
X130595714Y-118326723D01*
X130595714Y-118326723D02*
X130548095Y-118421961D01*
X130548095Y-118421961D02*
X130452857Y-118517200D01*
X130452857Y-118517200D02*
X130310000Y-118564819D01*
X130310000Y-118564819D02*
X130071905Y-118564819D01*
X131595714Y-118564819D02*
X131024286Y-118564819D01*
X131310000Y-118564819D02*
X131310000Y-117564819D01*
X131310000Y-117564819D02*
X131214762Y-117707676D01*
X131214762Y-117707676D02*
X131119524Y-117802914D01*
X131119524Y-117802914D02*
X131024286Y-117850533D01*
X124126666Y-79489819D02*
X124126666Y-80204104D01*
X124126666Y-80204104D02*
X124079047Y-80346961D01*
X124079047Y-80346961D02*
X123983809Y-80442200D01*
X123983809Y-80442200D02*
X123840952Y-80489819D01*
X123840952Y-80489819D02*
X123745714Y-80489819D01*
X124555238Y-79585057D02*
X124602857Y-79537438D01*
X124602857Y-79537438D02*
X124698095Y-79489819D01*
X124698095Y-79489819D02*
X124936190Y-79489819D01*
X124936190Y-79489819D02*
X125031428Y-79537438D01*
X125031428Y-79537438D02*
X125079047Y-79585057D01*
X125079047Y-79585057D02*
X125126666Y-79680295D01*
X125126666Y-79680295D02*
X125126666Y-79775533D01*
X125126666Y-79775533D02*
X125079047Y-79918390D01*
X125079047Y-79918390D02*
X124507619Y-80489819D01*
X124507619Y-80489819D02*
X125126666Y-80489819D01*
X101266666Y-79234819D02*
X101266666Y-79949104D01*
X101266666Y-79949104D02*
X101219047Y-80091961D01*
X101219047Y-80091961D02*
X101123809Y-80187200D01*
X101123809Y-80187200D02*
X100980952Y-80234819D01*
X100980952Y-80234819D02*
X100885714Y-80234819D01*
X102266666Y-80234819D02*
X101695238Y-80234819D01*
X101980952Y-80234819D02*
X101980952Y-79234819D01*
X101980952Y-79234819D02*
X101885714Y-79377676D01*
X101885714Y-79377676D02*
X101790476Y-79472914D01*
X101790476Y-79472914D02*
X101695238Y-79520533D01*
X112714819Y-131143333D02*
X113429104Y-131143333D01*
X113429104Y-131143333D02*
X113571961Y-131190952D01*
X113571961Y-131190952D02*
X113667200Y-131286190D01*
X113667200Y-131286190D02*
X113714819Y-131429047D01*
X113714819Y-131429047D02*
X113714819Y-131524285D01*
X112714819Y-130762380D02*
X112714819Y-130143333D01*
X112714819Y-130143333D02*
X113095771Y-130476666D01*
X113095771Y-130476666D02*
X113095771Y-130333809D01*
X113095771Y-130333809D02*
X113143390Y-130238571D01*
X113143390Y-130238571D02*
X113191009Y-130190952D01*
X113191009Y-130190952D02*
X113286247Y-130143333D01*
X113286247Y-130143333D02*
X113524342Y-130143333D01*
X113524342Y-130143333D02*
X113619580Y-130190952D01*
X113619580Y-130190952D02*
X113667200Y-130238571D01*
X113667200Y-130238571D02*
X113714819Y-130333809D01*
X113714819Y-130333809D02*
X113714819Y-130619523D01*
X113714819Y-130619523D02*
X113667200Y-130714761D01*
X113667200Y-130714761D02*
X113619580Y-130762380D01*
X133286667Y-89307200D02*
X133429524Y-89354819D01*
X133429524Y-89354819D02*
X133667619Y-89354819D01*
X133667619Y-89354819D02*
X133762857Y-89307200D01*
X133762857Y-89307200D02*
X133810476Y-89259580D01*
X133810476Y-89259580D02*
X133858095Y-89164342D01*
X133858095Y-89164342D02*
X133858095Y-89069104D01*
X133858095Y-89069104D02*
X133810476Y-88973866D01*
X133810476Y-88973866D02*
X133762857Y-88926247D01*
X133762857Y-88926247D02*
X133667619Y-88878628D01*
X133667619Y-88878628D02*
X133477143Y-88831009D01*
X133477143Y-88831009D02*
X133381905Y-88783390D01*
X133381905Y-88783390D02*
X133334286Y-88735771D01*
X133334286Y-88735771D02*
X133286667Y-88640533D01*
X133286667Y-88640533D02*
X133286667Y-88545295D01*
X133286667Y-88545295D02*
X133334286Y-88450057D01*
X133334286Y-88450057D02*
X133381905Y-88402438D01*
X133381905Y-88402438D02*
X133477143Y-88354819D01*
X133477143Y-88354819D02*
X133715238Y-88354819D01*
X133715238Y-88354819D02*
X133858095Y-88402438D01*
X134191429Y-88354819D02*
X134429524Y-89354819D01*
X134429524Y-89354819D02*
X134620000Y-88640533D01*
X134620000Y-88640533D02*
X134810476Y-89354819D01*
X134810476Y-89354819D02*
X135048572Y-88354819D01*
X135381905Y-88450057D02*
X135429524Y-88402438D01*
X135429524Y-88402438D02*
X135524762Y-88354819D01*
X135524762Y-88354819D02*
X135762857Y-88354819D01*
X135762857Y-88354819D02*
X135858095Y-88402438D01*
X135858095Y-88402438D02*
X135905714Y-88450057D01*
X135905714Y-88450057D02*
X135953333Y-88545295D01*
X135953333Y-88545295D02*
X135953333Y-88640533D01*
X135953333Y-88640533D02*
X135905714Y-88783390D01*
X135905714Y-88783390D02*
X135334286Y-89354819D01*
X135334286Y-89354819D02*
X135953333Y-89354819D01*
%TO.C,SW1*%
D12*
X131120000Y-83360000D02*
X131120000Y-84860000D01*
X132370000Y-87360000D02*
X136870000Y-87360000D01*
X136870000Y-80860000D02*
X132370000Y-80860000D01*
X138120000Y-84860000D02*
X138120000Y-83360000D01*
%TO.C,R1*%
X131350000Y-101260000D02*
X137890000Y-101260000D01*
X131350000Y-101590000D02*
X131350000Y-101260000D01*
X131350000Y-103670000D02*
X131350000Y-104000000D01*
X131350000Y-104000000D02*
X137890000Y-104000000D01*
X137890000Y-101260000D02*
X137890000Y-101590000D01*
X137890000Y-104000000D02*
X137890000Y-103670000D01*
%TO.C,D1*%
X133060000Y-116484000D02*
X133060000Y-116640000D01*
X133060000Y-118800000D02*
X133060000Y-118956000D01*
X133060000Y-116484484D02*
G75*
G02*
X136291437Y-116640000I1560000J-1235516D01*
G01*
X133579039Y-116640000D02*
G75*
G02*
X135660961Y-116640000I1040961J-1080000D01*
G01*
X135660961Y-118800000D02*
G75*
G02*
X133579039Y-118800000I-1040961J1080000D01*
G01*
X136291437Y-118800000D02*
G75*
G02*
X133060000Y-118955516I-1671437J1080000D01*
G01*
%TO.C,J2*%
X123130000Y-84075000D02*
X123130000Y-119695000D01*
X123130000Y-84075000D02*
X125790000Y-84075000D01*
X123130000Y-119695000D02*
X125790000Y-119695000D01*
X124460000Y-81475000D02*
X125790000Y-81475000D01*
X125790000Y-81475000D02*
X125790000Y-82805000D01*
X125790000Y-84075000D02*
X125790000Y-119695000D01*
%TO.C,J1*%
X100270000Y-83820000D02*
X100270000Y-119440000D01*
X100270000Y-83820000D02*
X102930000Y-83820000D01*
X100270000Y-119440000D02*
X102930000Y-119440000D01*
X101600000Y-81220000D02*
X102930000Y-81220000D01*
X102930000Y-81220000D02*
X102930000Y-82550000D01*
X102930000Y-83820000D02*
X102930000Y-119440000D01*
%TO.C,J3*%
X101540000Y-129480000D02*
X101540000Y-132140000D01*
X109220000Y-129480000D02*
X101540000Y-129480000D01*
X109220000Y-129480000D02*
X109220000Y-132140000D01*
X109220000Y-132140000D02*
X101540000Y-132140000D01*
X111820000Y-130810000D02*
X111820000Y-132140000D01*
X111820000Y-132140000D02*
X110490000Y-132140000D01*
%TO.C,D2*%
X133060000Y-121954000D02*
X133060000Y-122110000D01*
X133060000Y-124270000D02*
X133060000Y-124426000D01*
X133060000Y-121954484D02*
G75*
G02*
X136291437Y-122110000I1560000J-1235516D01*
G01*
X133579039Y-122110000D02*
G75*
G02*
X135660961Y-122110000I1040961J-1080000D01*
G01*
X135660961Y-124270000D02*
G75*
G02*
X133579039Y-124270000I-1040961J1080000D01*
G01*
X136291437Y-124270000D02*
G75*
G02*
X133060000Y-124425516I-1671437J1080000D01*
G01*
%TO.C,R2*%
X131350000Y-105310000D02*
X137890000Y-105310000D01*
X131350000Y-105640000D02*
X131350000Y-105310000D01*
X131350000Y-107720000D02*
X131350000Y-108050000D01*
X131350000Y-108050000D02*
X137890000Y-108050000D01*
X137890000Y-105310000D02*
X137890000Y-105640000D01*
X137890000Y-108050000D02*
X137890000Y-107720000D01*
%TO.C,D3*%
X133060000Y-127424000D02*
X133060000Y-127580000D01*
X133060000Y-129740000D02*
X133060000Y-129896000D01*
X133060000Y-127424484D02*
G75*
G02*
X136291437Y-127580000I1560000J-1235516D01*
G01*
X133579039Y-127580000D02*
G75*
G02*
X135660961Y-127580000I1040961J-1080000D01*
G01*
X135660961Y-129740000D02*
G75*
G02*
X133579039Y-129740000I-1040961J1080000D01*
G01*
X136291437Y-129740000D02*
G75*
G02*
X133060000Y-129895516I-1671437J1080000D01*
G01*
%TO.C,R3*%
X131350000Y-109360000D02*
X137890000Y-109360000D01*
X131350000Y-109690000D02*
X131350000Y-109360000D01*
X131350000Y-111770000D02*
X131350000Y-112100000D01*
X131350000Y-112100000D02*
X137890000Y-112100000D01*
X137890000Y-109360000D02*
X137890000Y-109690000D01*
X137890000Y-112100000D02*
X137890000Y-111770000D01*
%TO.C,SW2*%
X131120000Y-92575000D02*
X131120000Y-94075000D01*
X132370000Y-96575000D02*
X136870000Y-96575000D01*
X136870000Y-90075000D02*
X132370000Y-90075000D01*
X138120000Y-94075000D02*
X138120000Y-92575000D01*
%TD*%
M02*
