%TF.GenerationSoftware,KiCad,Pcbnew,10.0.1*%
%TF.CreationDate,2026-05-01T02:12:43-04:00*%
%TF.ProjectId,nodemcu_carrier_pcb,6e6f6465-6d63-4755-9f63-617272696572,rev?*%
%TF.SameCoordinates,Original*%
%TF.FileFunction,Soldermask,Top*%
%TF.FilePolarity,Negative*%
%FSLAX46Y46*%
G04 Gerber Fmt 4.6, Leading zero omitted, Abs format (unit mm)*
G04 Created by KiCad (PCBNEW 10.0.1) date 2026-05-01 02:12:43*
%MOMM*%
%LPD*%
G01*
G04 APERTURE LIST*
%ADD10C,2.000000*%
%ADD11C,1.600000*%
%ADD12R,1.800000X1.800000*%
%ADD13C,1.800000*%
%ADD14R,1.700000X1.700000*%
%ADD15C,1.700000*%
G04 APERTURE END LIST*
D10*
%TO.C,SW1*%
X131370000Y-81860000D03*
X137870000Y-81860000D03*
X131370000Y-86360000D03*
X137870000Y-86360000D03*
%TD*%
D11*
%TO.C,R1*%
X130810000Y-102630000D03*
X138430000Y-102630000D03*
%TD*%
D12*
%TO.C,D1*%
X133350000Y-117720000D03*
D13*
X135890000Y-117720000D03*
%TD*%
D14*
%TO.C,J2*%
X124460000Y-82805000D03*
D15*
X124460000Y-85345000D03*
X124460000Y-87885000D03*
X124460000Y-90425000D03*
X124460000Y-92965000D03*
X124460000Y-95505000D03*
X124460000Y-98045000D03*
X124460000Y-100585000D03*
X124460000Y-103125000D03*
X124460000Y-105665000D03*
X124460000Y-108205000D03*
X124460000Y-110745000D03*
X124460000Y-113285000D03*
X124460000Y-115825000D03*
X124460000Y-118365000D03*
%TD*%
D14*
%TO.C,J1*%
X101600000Y-82550000D03*
D15*
X101600000Y-85090000D03*
X101600000Y-87630000D03*
X101600000Y-90170000D03*
X101600000Y-92710000D03*
X101600000Y-95250000D03*
X101600000Y-97790000D03*
X101600000Y-100330000D03*
X101600000Y-102870000D03*
X101600000Y-105410000D03*
X101600000Y-107950000D03*
X101600000Y-110490000D03*
X101600000Y-113030000D03*
X101600000Y-115570000D03*
X101600000Y-118110000D03*
%TD*%
D14*
%TO.C,J3*%
X110490000Y-130810000D03*
D15*
X107950000Y-130810000D03*
X105410000Y-130810000D03*
X102870000Y-130810000D03*
%TD*%
D12*
%TO.C,D2*%
X133350000Y-123190000D03*
D13*
X135890000Y-123190000D03*
%TD*%
D11*
%TO.C,R2*%
X130810000Y-106680000D03*
X138430000Y-106680000D03*
%TD*%
D12*
%TO.C,D3*%
X133350000Y-128660000D03*
D13*
X135890000Y-128660000D03*
%TD*%
D11*
%TO.C,R3*%
X130810000Y-110730000D03*
X138430000Y-110730000D03*
%TD*%
D10*
%TO.C,SW2*%
X131370000Y-91075000D03*
X137870000Y-91075000D03*
X131370000Y-95575000D03*
X137870000Y-95575000D03*
%TD*%
M02*
